<?xml version="1.0" standalone="no"?>
<!DOCTYPE svg PUBLIC "-//W3C//DTD SVG 20010904//EN"
 "http://www.w3.org/TR/2001/REC-SVG-20010904/DTD/svg10.dtd">
<svg version="1.0" xmlns="http://www.w3.org/2000/svg"
 width="92.000000pt" height="52.000000pt" viewBox="0 0 92.000000 52.000000"
 preserveAspectRatio="xMidYMid meet">

<g transform="translate(0.000000,52.000000) scale(0.100000,-0.100000)"
fill="#000000" stroke="none">
<path d="M169 496 c-98 -35 -159 -124 -159 -233 1 -144 104 -246 250 -247 53
0 75 5 119 29 79 44 131 122 131 200 0 84 57 145 135 145 52 0 97 -28 119 -75
47 -98 -54 -210 -158 -175 -21 7 -38 10 -40 8 -1 -1 -15 -24 -30 -51 l-27 -48
38 -16 c48 -20 147 -21 194 -1 19 9 52 30 73 48 170 150 61 430 -166 430 -137
0 -242 -94 -255 -227 -7 -71 -32 -116 -77 -137 -43 -20 -69 -20 -113 1 -46 21
-73 67 -73 122 0 37 6 49 39 82 34 35 44 39 87 39 27 0 56 -4 64 -9 11 -8 21
2 43 41 16 28 25 54 20 58 -33 30 -151 39 -214 16z"/>
<path d="M217 302 c-30 -33 -21 -69 22 -92 20 -10 27 -9 50 7 14 11 27 30 29
42 8 51 -66 82 -101 43z"/>
<path d="M608 308 c-42 -34 -19 -100 35 -101 36 0 57 20 57 54 0 50 -53 77
-92 47z"/>
</g>
</svg>
